<svg width="101" height="38" viewBox="0 0 101 38" fill="none" xmlns="http://www.w3.org/2000/svg">
<path d="M0.522727 30V0.90909H4.04545V13.8636H19.5568V0.90909H23.0795V30H19.5568V16.9886H4.04545V30H0.522727ZM38.8253 30.4545C36.723 30.4545 34.9096 29.9905 33.3849 29.0625C31.8698 28.125 30.7003 26.8182 29.8764 25.142C29.062 23.4564 28.6548 21.4962 28.6548 19.2614C28.6548 17.0265 29.062 15.0568 29.8764 13.3523C30.7003 11.6383 31.8461 10.303 33.3139 9.34659C34.7912 8.38068 36.5147 7.89773 38.4844 7.89773C39.6207 7.89773 40.7429 8.08712 41.8509 8.46591C42.9588 8.8447 43.9673 9.46023 44.8764 10.3125C45.7855 11.1553 46.5099 12.2727 47.0497 13.6648C47.5895 15.0568 47.8594 16.7708 47.8594 18.8068V20.2273H31.0412V17.3295H44.4503C44.4503 16.0985 44.2041 15 43.7116 14.0341C43.2287 13.0682 42.5374 12.3059 41.6378 11.7472C40.7476 11.1884 39.6965 10.9091 38.4844 10.9091C37.1491 10.9091 35.9938 11.2405 35.0185 11.9034C34.0526 12.5568 33.3092 13.4091 32.7884 14.4602C32.2675 15.5114 32.0071 16.6383 32.0071 17.8409V19.7727C32.0071 21.4205 32.2912 22.8172 32.8594 23.9631C33.437 25.0994 34.2372 25.9659 35.2599 26.5625C36.2827 27.1496 37.4711 27.4432 38.8253 27.4432C39.706 27.4432 40.5014 27.3201 41.2116 27.0739C41.9313 26.8182 42.5516 26.4394 43.0724 25.9375C43.5933 25.4261 43.9957 24.7917 44.2798 24.0341L47.5185 24.9432C47.1776 26.0417 46.6046 27.0076 45.7997 27.8409C44.9948 28.6648 44.0005 29.3087 42.8168 29.7727C41.633 30.2273 40.3026 30.4545 38.8253 30.4545ZM56.3111 0.90909V30H52.9588V0.90909H56.3111ZM65.8033 0.90909V30H62.451V0.90909H65.8033ZM80.8068 30.4545C78.8371 30.4545 77.1089 29.9858 75.6222 29.0483C74.1449 28.1108 72.9896 26.7992 72.1562 25.1136C71.3324 23.428 70.9205 21.4583 70.9205 19.2045C70.9205 16.9318 71.3324 14.9479 72.1562 13.2528C72.9896 11.5578 74.1449 10.2415 75.6222 9.30398C77.1089 8.36648 78.8371 7.89773 80.8068 7.89773C82.7765 7.89773 84.5 8.36648 85.9773 9.30398C87.464 10.2415 88.6193 11.5578 89.4432 13.2528C90.2765 14.9479 90.6932 16.9318 90.6932 19.2045C90.6932 21.4583 90.2765 23.428 89.4432 25.1136C88.6193 26.7992 87.464 28.1108 85.9773 29.0483C84.5 29.9858 82.7765 30.4545 80.8068 30.4545ZM80.8068 27.4432C82.303 27.4432 83.5341 27.0597 84.5 26.2926C85.4659 25.5256 86.1809 24.517 86.6449 23.267C87.1089 22.017 87.3409 20.6629 87.3409 19.2045C87.3409 17.7462 87.1089 16.3873 86.6449 15.1278C86.1809 13.8684 85.4659 12.8504 84.5 12.0739C83.5341 11.2973 82.303 10.9091 80.8068 10.9091C79.3106 10.9091 78.0795 11.2973 77.1136 12.0739C76.1477 12.8504 75.4328 13.8684 74.9688 15.1278C74.5047 16.3873 74.2727 17.7462 74.2727 19.2045C74.2727 20.6629 74.5047 22.017 74.9688 23.267C75.4328 24.517 76.1477 25.5256 77.1136 26.2926C78.0795 27.0597 79.3106 27.4432 80.8068 27.4432ZM100.81 26.0227L100.583 27.5568C100.422 28.6364 100.176 29.7917 99.8445 31.0227C99.5225 32.2538 99.1863 33.4138 98.8359 34.5028C98.4856 35.5919 98.1967 36.4583 97.9695 37.1023H95.4126C95.5357 36.4962 95.6967 35.696 95.8956 34.7017C96.0945 33.7074 96.2933 32.5947 96.4922 31.3636C96.7005 30.142 96.871 28.892 97.0036 27.6136L97.174 26.0227H100.81Z" fill="black"/>
</svg>
